<svg width="137" height="30" viewBox="0 0 137 30" fill="none" xmlns="http://www.w3.org/2000/svg">
<path d="M45.06 3.47293H37.0052C35.6968 3.47312 34.4158 3.84752 33.3132 4.55197C32.2106 5.25642 31.3326 6.26151 30.7826 7.44868L21.9177 27.1387C21.7758 27.4466 21.7137 27.7852 21.737 28.1234C21.7602 28.4616 21.8682 28.7885 22.051 29.0741C22.2338 29.3596 22.4854 29.5945 22.7828 29.7573C23.0801 29.9201 23.4137 30.0054 23.7527 30.0055H30.5511C31.3551 30.0045 32.1419 29.7728 32.818 29.3379C33.4942 28.903 34.0314 28.2831 34.3657 27.552L35.0173 26.1358L45.06 3.47293Z" fill="url(#paint0_linear_2542_344)"/>
<path d="M7.95977 0H0L15.2335 27.5892C15.6387 28.3192 16.2317 28.9277 16.9511 29.3516C17.6704 29.7754 18.49 29.9993 19.325 30H30.5937C29.015 29.8416 27.4363 26.8412 27.4363 26.8412L14.8877 4.09147C14.2044 2.85221 13.2012 1.81892 11.9827 1.09929C10.7642 0.379661 9.37493 4.1134e-05 7.95977 0V0Z" fill="url(#paint1_linear_2542_344)"/>
<path d="M49.4312 7.11945H52.8256L57.5838 19.1487L62.3916 7.11945H65.764L58.9972 23.2084H55.9555L49.4312 7.11945Z" fill="#0F0833"/>
<path d="M76.2764 23.2085H73.5212V22.2166C72.497 23.0774 71.2002 23.5462 69.8623 23.5391C66.6221 23.5391 64.0212 20.8941 64.0212 17.5892C64.0212 14.2844 66.6221 11.638 69.8623 11.638C71.2002 11.6309 72.497 12.0996 73.5212 12.9605V11.9686H76.2764V23.2085ZM70.237 20.85C71.9783 20.85 73.3669 19.4393 73.3669 17.5892C73.3669 15.7391 71.9783 14.3271 70.237 14.3271C68.4736 14.3271 67.085 15.7377 67.085 17.5892C67.085 19.4407 68.4736 20.85 70.237 20.85Z" fill="#0F0833"/>
<path d="M77.752 11.9686H80.4631V12.7621C81.1519 12.0127 82.2264 11.5939 83.5048 11.5939C86.1222 11.5939 87.9572 13.4454 87.9572 16.1124V23.2084H85.0477V16.596C85.0477 15.2735 84.1661 14.2816 82.9097 14.2816C82.6154 14.2785 82.3235 14.3338 82.0508 14.4443C81.778 14.5548 81.5299 14.7183 81.3208 14.9254C81.1117 15.1324 80.9458 15.3789 80.8326 15.6505C80.7194 15.9222 80.6612 16.2135 80.6614 16.5078V23.2071H77.752V11.9686Z" fill="#0F0833"/>
<path d="M96.9915 22.8337C96.7034 23.052 96.376 23.2129 96.0272 23.3076C95.604 23.4233 95.1667 23.479 94.7281 23.4729C93.4497 23.4729 92.4468 23.1276 91.7194 22.437C90.992 21.7464 90.6283 20.7917 90.6283 19.573V14.4648H89.3279V11.9245H90.6283V7.76004H93.6701V11.9245H95.3452L96.1566 14.4648H93.6646L93.6425 19.4683C93.6425 20.394 94.1568 20.8564 95.1854 20.8555C95.3712 20.8581 95.5566 20.8359 95.7365 20.7894C95.9176 20.7368 96.0888 20.6549 96.2434 20.5469L96.9915 22.8337Z" fill="#0F0833"/>
<path d="M109.886 23.2085H107.131V22.2166C106.106 23.0774 104.81 23.5462 103.472 23.5391C100.232 23.5391 97.6306 20.8941 97.6306 17.5892C97.6306 14.2844 100.232 11.638 103.472 11.638C104.81 11.6309 106.106 12.0996 107.131 12.9605V11.9686H109.886V23.2085ZM103.846 20.85C105.588 20.85 106.976 19.4393 106.976 17.5892C106.976 15.7391 105.588 14.3271 103.846 14.3271C102.083 14.3271 100.694 15.7377 100.694 17.5892C100.694 19.4407 102.08 20.85 103.846 20.85Z" fill="#0F0833"/>
<path d="M123.218 22.5927C123.218 26.2516 120.751 28.4998 116.761 28.4998C114.695 28.4998 112.766 27.8826 111.389 26.8026L112.755 24.2678C114.012 25.3479 115.312 25.8107 116.789 25.8107C119.147 25.8107 120.469 24.5544 120.469 22.3502V22.1959C119.44 23.0478 118.147 23.5153 116.811 23.5184C113.571 23.5184 110.97 20.8734 110.97 17.5686C110.97 14.2844 113.571 11.6449 116.811 11.6449C118.144 11.6401 119.438 12.1 120.469 12.9453V11.981H123.224L123.218 22.5927ZM117.18 20.8293C118.921 20.8293 120.31 19.4187 120.31 17.5906C120.31 15.7391 118.921 14.3284 117.18 14.3284C115.417 14.3284 114.028 15.7391 114.028 17.5906C114.028 19.4242 115.417 20.828 117.18 20.828V20.8293Z" fill="#0F0833"/>
<path d="M130.668 23.5391C127.009 23.5391 124.32 21.0263 124.32 17.6333C124.32 14.2403 126.965 11.638 130.36 11.638C133.666 11.638 136.067 14.1728 136.067 17.501C136.065 17.8913 136.043 18.2812 136.001 18.6692H127.516C127.803 20.0344 128.927 20.9161 130.602 20.9161C131.748 20.9161 132.562 20.5028 133.378 19.5275L135.694 21.2467C134.546 22.7304 132.761 23.5391 130.668 23.5391ZM132.959 16.3549C132.783 15.0765 131.769 14.2168 130.342 14.2168C128.865 14.2168 127.961 15.1205 127.609 16.3549H132.959Z" fill="#0F0833"/>
<defs>
<linearGradient id="paint0_linear_2542_344" x1="27.7105" y1="27.8206" x2="37.3813" y2="7.30266" gradientUnits="userSpaceOnUse">
<stop stop-color="#372A56"/>
<stop offset="0.04" stop-color="#3C2F67"/>
<stop offset="0.16" stop-color="#483B90"/>
<stop offset="0.28" stop-color="#5245B1"/>
<stop offset="0.4" stop-color="#594CCC"/>
<stop offset="0.52" stop-color="#5F52DE"/>
<stop offset="0.65" stop-color="#6255E9"/>
<stop offset="0.79" stop-color="#6356ED"/>
</linearGradient>
<linearGradient id="paint1_linear_2542_344" x1="8.54939" y1="2.01267" x2="24.0019" y2="31.7509" gradientUnits="userSpaceOnUse">
<stop stop-color="#89EFEC"/>
<stop offset="0.12" stop-color="#85E1EC"/>
<stop offset="0.34" stop-color="#7CBDEB"/>
<stop offset="0.64" stop-color="#6D83EB"/>
<stop offset="0.87" stop-color="#6153EA"/>
</linearGradient>
</defs>
</svg>
